<svg width="42" height="42" viewBox="0 0 42 42" fill="none" xmlns="http://www.w3.org/2000/svg">
<path d="M21 42C32.598 42 42 32.598 42 21C42 9.40202 32.598 0 21 0C9.40202 0 0 9.40202 0 21C0 32.598 9.40202 42 21 42Z" fill="#F3A82F"/>
<path d="M18.3893 28.0002C17.8652 27.99 17.3661 27.7746 16.9993 27.4002L11.6093 21.8702C11.2393 21.4896 11.0357 20.9776 11.0432 20.4469C11.0507 19.9162 11.2687 19.4101 11.6493 19.0402C12.0299 18.6702 12.5418 18.4666 13.0726 18.4741C13.6033 18.4816 14.1093 18.6996 14.4793 19.0802L18.4793 23.2002L27.6593 14.5502C28.0492 14.2107 28.5553 14.0354 29.0716 14.0611C29.5879 14.0867 30.0743 14.3112 30.4286 14.6876C30.783 15.0639 30.9779 15.5629 30.9724 16.0798C30.9669 16.5967 30.7615 17.0914 30.3993 17.4602L19.7893 27.4602C19.4104 27.815 18.9083 28.0087 18.3893 28.0002V28.0002Z" fill="white"/>
</svg>
